<?xml version="1.0" encoding="utf-8"?>
<svg version="1.0" viewBox="0 0 360 361.5" xmlns="http://www.w3.org/2000/svg">
   <g>
        <path transform="matrix(1.2108 0 0 1.2108 -37.941 -35.211)" d="m325.71 177.21a145.71 145.71 0 1 1-291.43 0 145.71 145.71 0 1 1 291.43 0z" fill-rule="evenodd" />
        <path id="yellow" d="m21.75 133.16c-4.2778 14.661-6.5625 30.151-6.5625 46.188 0 49.125 21.525 93.266 55.656 123.47l14.219-15.094c-30.123-26.418-49.156-65.19-49.156-108.38 0-14.063 2.0196-27.648 5.7812-40.5l-19.938-5.6875z" fill="#fbe90a" fill-rule="evenodd" />
        <path id="green" d="m315.28 85.25-16.938 11.938c16.227 23.316 25.75 51.617 25.75 82.156-1e-5 79.545-64.549 144.12-144.09 144.12-36.297 1e-5 -69.466-13.45-94.812-35.625l-13.469 15.75c28.966 25.271 66.851 40.562 108.28 40.562 90.976 0 164.81-73.836 164.81-164.81 0-34.98-10.923-67.405-29.531-94.094z" fill="#01873c" fill-rule="evenodd" />
        <path d="m23.2 131.86c20.374-67.28 82.897-116.3 156.8-116.3 55.406 0 104.41 27.554 134.06 69.698" fill="none" stroke="#fff" stroke-width="2" />
        
        <path d="m55.417 143.12-33.749-9.7583" fill="none" stroke="#ff0101" stroke-width="6" />
        <path
          d="m118.36 58.368-13.121-25.757m-16.108 45.908-19.316-21.437m-4.0746 48.947-24.346-15.626m10.368 44.326-27.282-9.4947m20.73 37.55-28.689-3.5274m29.28 40.532-28.562 4.3491m39.368 31.91-26.25 12.061m47.516 20.676-21.741 19.039m49.985 5.4983-15.695 24.213m48.679-8.5863-8.7047 27.587m46.849-21.437-0.58488 28.905m40.863-34.128 7.9888 27.782m29.965-45.353 16.06 24.031m14.336-51.936 22.529 18.095m-2.3806-52.501 26.814 10.773m-17.626-48.343 28.812 2.7843m-30.84-42.827 28.348-5.7413m-40.337-28.45 25.817-13.029m-46.312-16.782 21.429-19.359m-41.799 0.94448 17.097-23.281m-58.984 2.4096 8.1913-27.753m11.038 35.127 12.279-26.163m3.3749 25.162 10.528-17.787m11.683 34.002 13.725-15.468m8.9109 40.871 17.005-11.838m0.45479 45.846 19.502-6.9396m-11.505 45.807 20.657-1.3517m-24.307 44.471 20.097 4.8411m-35.356 33.383 17.914 10.333m-43.939 22.497 14.189 15.062m-50.511 9.8932 8.9689 18.653m-50.478-5.971 3.0033 20.496m-46.855-20.785-3.3004 20.408m-68.633-54.324-13.653 15.565m-12.159-45.306-17.369 11.289m-0.084014-49.113-19.873 5.8452m13.974-46.488h-20.717m35.812-63.89-18.534-9.1803m37.19-19.508-15.853-13.302m43.916-12.314-11.811-16.969m45.384-0.28075-7.009-19.496m-7.0714 284.49-9.025 18.625m34.517-308.89 6.5976 28.441m81.586-2.5289 7.244-19.184"
          fill="none" stroke="#fff" stroke-width="3" />
        <path d="m286.84 82.688-10.938 9.9062c20.776 22.95 33.438 53.378 33.438 86.75 0 16.938-3.2593 33.139-9.1875 47.969l13.688 5.4688c6.6055-16.523 10.25-34.566 10.25-53.438 0-37.183-14.1-71.086-37.25-96.656z" fill="#fff" fill-rule="evenodd" />
        <g fill="#fff">
          <path transform="scale(.93703 1.0672)"
            d="m90.35 117.3v2.9471h-16.507c-0.022714-0.73819 0.096531-1.448 0.35774-2.1294 0.4202-1.1243 1.0902-2.2316 2.0101-3.3218 0.93125-1.0902 2.2713-2.3508 4.0203-3.7818 2.7142-2.2259 4.5484-3.9862 5.5023-5.2809 0.95395-1.306 1.4309-2.5382 1.4309-3.6966-1.4e-5 -1.2152-0.43725-2.2373-1.3117-3.0663-0.86312-0.84038-1.9931-1.2606-3.39-1.2606-1.4764 2.2e-5 -2.6575 0.44293-3.5433 1.3287-0.88583 0.88584-1.3344 2.1124-1.3458 3.6796l-3.1515-0.32366c0.21578-2.3508 1.0278-4.1395 2.436-5.3661 1.4082-1.2379 3.2991-1.8568 5.6727-1.8568 2.3963 2.5e-5 4.2928 0.66439 5.6897 1.9931 1.3969 1.3288 2.0953 2.9755 2.0953 4.9402-1.8e-5 0.99941-0.20444 1.9818-0.61326 2.9471-0.40886 0.96534-1.0903 1.9818-2.0442 3.0493-0.94262 1.0676-2.5155 2.5326-4.7187 4.3951-1.8398 1.5445-3.0209 2.595-3.5433 3.1515-0.52242 0.54513-0.95397 1.0959-1.2947 1.6524h12.248m19.42 0v2.9471h-16.507c-0.022715-0.73819 0.096531-1.448 0.35774-2.1294 0.4202-1.1243 1.0902-2.2316 2.0101-3.3218 0.93125-1.0902 2.2713-2.3508 4.0203-3.7818 2.7142-2.2259 4.5484-3.9862 5.5023-5.2809 0.95395-1.306 1.4309-2.5382 1.431-3.6966-2e-5 -1.2152-0.43725-2.2373-1.3117-3.0663-0.86313-0.84038-1.9931-1.2606-3.39-1.2606-1.4764 2.2e-5 -2.6575 0.44293-3.5433 1.3287-0.88583 0.88584-1.3344 2.1124-1.3458 3.6796l-3.1515-0.32366c0.21578-2.3508 1.0278-4.1395 2.436-5.3661 1.4082-1.2379 3.2991-1.8568 5.6727-1.8568 2.3963 2.5e-5 4.2928 0.66439 5.6897 1.9931 1.3969 1.3288 2.0953 2.9755 2.0953 4.9402-2e-5 0.99941-0.20444 1.9818-0.61326 2.9471-0.40886 0.96534-1.0903 1.9818-2.0442 3.0493-0.94263 1.0676-2.5155 2.5326-4.7187 4.3951-1.8398 1.5445-3.0209 2.595-3.5433 3.1515-0.52242 0.54513-0.95397 1.0959-1.2947 1.6524h12.248m3.3048-9.3693c0-2.9527 0.30095-5.3263 0.90286-7.1207 0.61326-1.8057 1.5161-3.1969 2.7086-4.1736 1.2038-0.97665 2.7142-1.465 4.5313-1.465 1.3401 2.5e-5 2.5155 0.27259 3.5263 0.81768 1.0107 0.53379 1.8454 1.3117 2.5042 2.3338 0.65867 1.0108 1.1754 2.2487 1.5502 3.7137 0.37476 1.4537 0.56214 3.4184 0.56216 5.8941-2e-5 2.93-0.30097 5.2979-0.90286 7.1036-0.60192 1.7944-1.5048 3.1856-2.7086 4.1736-1.1925 0.97667-2.7029 1.465-4.5313 1.465-2.4076 0-4.2985-0.86311-5.6727-2.5893-1.6467-2.0783-2.4701-5.4626-2.4701-10.153m3.1515 0c0 4.0998 0.47698 6.8311 1.431 8.1939 0.96532 1.3515 2.1521 2.0272 3.5603 2.0272 1.4082 0 2.5893-0.6814 3.5433-2.0442 0.96531-1.3628 1.448-4.0884 1.448-8.1768-2e-5 -4.1111-0.48268-6.8424-1.448-8.1939-0.95397-1.3514-2.1464-2.0272-3.5774-2.0272-1.4082 2.2e-5 -2.5326 0.59625-3.3729 1.7887-1.0562 1.5218-1.5843 4.3326-1.5843 8.4324" />
          <path transform="scale(.93703 1.0672)"
            d="m75.104 165.79v2.9471h-16.507c-0.022715-0.73818 0.096531-1.448 0.35774-2.1294 0.4202-1.1243 1.0902-2.2316 2.0101-3.3218 0.93125-1.0902 2.2713-2.3508 4.0203-3.7818 2.7142-2.2259 4.5484-3.9862 5.5023-5.2809 0.95395-1.306 1.4309-2.5382 1.4309-3.6966-1.4e-5 -1.2152-0.43725-2.2373-1.3117-3.0663-0.86312-0.84038-1.9931-1.2606-3.39-1.2606-1.4764 2e-5 -2.6575 0.44294-3.5433 1.3287-0.88583 0.88584-1.3344 2.1124-1.3458 3.6796l-3.1515-0.32367c0.21578-2.3508 1.0278-4.1395 2.436-5.366 1.4082-1.2379 3.2991-1.8568 5.6727-1.8568 2.3963 3e-5 4.2928 0.6644 5.6897 1.9931 1.3969 1.3288 2.0953 2.9755 2.0953 4.9402-1.8e-5 0.99941-0.20444 1.9818-0.61326 2.9471-0.40886 0.96533-1.0903 1.9818-2.0442 3.0493-0.94262 1.0675-2.5155 2.5326-4.7187 4.395-1.8398 1.5445-3.0209 2.595-3.5433 3.1515-0.52242 0.54512-0.95397 1.0959-1.2947 1.6524h12.248m3.3048-9.3693c-2e-6 -2.9527 0.30095-5.3263 0.90286-7.1207 0.61326-1.8057 1.5161-3.1969 2.7086-4.1736 1.2038-0.97665 2.7143-1.465 4.5313-1.465 1.3401 3e-5 2.5155 0.27259 3.5263 0.81769 1.0107 0.53379 1.8455 1.3117 2.5042 2.3338 0.65867 1.0108 1.1754 2.2487 1.5502 3.7137 0.37476 1.4537 0.56214 3.4184 0.56216 5.8941-1.8e-5 2.93-0.30097 5.2979-0.90286 7.1036-0.60192 1.7944-1.5048 3.1856-2.7086 4.1736-1.1925 0.97668-2.7029 1.465-4.5313 1.465-2.4076 0-4.2985-0.86311-5.6727-2.5893-1.6467-2.0783-2.4701-5.4626-2.4701-10.153m3.1515 0c-4e-6 4.0998 0.47698 6.8311 1.4309 8.1939 0.96532 1.3514 2.1521 2.0272 3.5603 2.0272 1.4082 0 2.5893-0.68141 3.5433-2.0442 0.96531-1.3628 1.448-4.0884 1.448-8.1768-1.5e-5 -4.1111-0.48268-6.8424-1.448-8.1939-0.95398-1.3514-2.1464-2.0272-3.5774-2.0272-1.4082 2e-5 -2.5326 0.59625-3.3729 1.7887-1.0562 1.5218-1.5843 4.3326-1.5843 8.4324m16.269 0c-1e-6 -2.9527 0.30095-5.3263 0.90286-7.1207 0.61326-1.8057 1.5161-3.1969 2.7086-4.1736 1.2038-0.97665 2.7142-1.465 4.5313-1.465 1.3401 3e-5 2.5155 0.27259 3.5263 0.81769 1.0107 0.53379 1.8454 1.3117 2.5042 2.3338 0.65868 1.0108 1.1754 2.2487 1.5502 3.7137 0.37475 1.4537 0.56214 3.4184 0.56216 5.8941-2e-5 2.93-0.30097 5.2979-0.90286 7.1036-0.60193 1.7944-1.5048 3.1856-2.7086 4.1736-1.1925 0.97668-2.7029 1.465-4.5313 1.465-2.4076 0-4.2985-0.86311-5.6727-2.5893-1.6467-2.0783-2.4701-5.4626-2.4701-10.153m3.1515 0c-1e-5 4.0998 0.47698 6.8311 1.431 8.1939 0.96531 1.3514 2.1521 2.0272 3.5603 2.0272 1.4082 0 2.5893-0.68141 3.5433-2.0442 0.96531-1.3628 1.448-4.0884 1.448-8.1768-1e-5 -4.1111-0.48267-6.8424-1.448-8.1939-0.95398-1.3514-2.1464-2.0272-3.5774-2.0272-1.4082 2e-5 -2.5326 0.59625-3.373 1.7887-1.0562 1.5218-1.5843 4.3326-1.5843 8.4324" />
          <path transform="scale(.93703 1.0672)"
            d="m73.969 223.95h-3.0663v-19.539c-0.7382 0.70414-1.7092 1.4082-2.913 2.1124-1.1925 0.70414-2.2657 1.2322-3.2196 1.5843v-2.9641c1.7149-0.80631 3.2139-1.783 4.4973-2.93 1.2833-1.147 2.1918-2.26 2.7256-3.3389h1.9761v25.076m12.589-13.543c-1.272-0.46561-2.2146-1.13-2.8278-1.9931-0.61327-0.8631-0.9199-1.8966-0.9199-3.1004-2e-6 -1.817 0.65301-3.3445 1.959-4.5824 1.306-1.2379 3.0436-1.8568 5.2127-1.8568 2.1805 2e-5 3.9351 0.636 5.2638 1.9079 1.3287 1.2606 1.9931 2.7994 1.9931 4.6165-1.6e-5 1.1584-0.30665 2.1692-0.9199 3.0322-0.60192 0.85177-1.5218 1.5105-2.7597 1.9761 1.5331 0.49971 2.6972 1.306 3.4922 2.419 0.80631 1.113 1.2095 2.4417 1.2095 3.9862-1.8e-5 2.1351-0.75524 3.9294-2.2657 5.3831-1.5105 1.4537-3.4979 2.1805-5.9623 2.1805-2.4644 0-4.4518-0.72683-5.9623-2.1805-1.5104-1.465-2.2657-3.2878-2.2657-5.4683-1e-6 -1.624 0.40884-2.9811 1.2265-4.0714 0.82904-1.1016 2.0045-1.8511 3.5263-2.2486m-0.61326-5.1957c-5e-6 1.1811 0.38044 2.1464 1.1414 2.896 0.76089 0.74956 1.7489 1.1243 2.9641 1.1243 1.1811 2e-5 2.1464-0.36908 2.896-1.1073 0.76089-0.74953 1.1413-1.6637 1.1414-2.7426-1.4e-5 -1.1243-0.39182-2.0669-1.1754-2.8278-0.77227-0.77224-1.7376-1.1584-2.896-1.1584-1.1698 2e-5 -2.1408 0.37479-2.913 1.1243-0.77226 0.74956-1.1584 1.6467-1.1584 2.6915m-0.98804 11.533c-5e-6 0.87447 0.20442 1.7206 0.61326 2.5382 0.42019 0.81769 1.0391 1.4537 1.8568 1.9079 0.81768 0.44291 1.6978 0.66437 2.6404 0.66437 1.465 0 2.6745-0.4713 3.6285-1.4139 0.95395-0.94261 1.4309-2.1407 1.4309-3.5944-1.5e-5 -1.4764-0.49403-2.6972-1.4821-3.6625-0.97669-0.96531-2.2032-1.448-3.6796-1.448-1.4423 1e-5 -2.6404 0.477-3.5944 1.431-0.94261 0.95398-1.4139 2.1464-1.4139 3.5774m16.371-5.1105c-1e-5 -2.9527 0.30095-5.3263 0.90286-7.1207 0.61326-1.8057 1.5161-3.1969 2.7086-4.1736 1.2038-0.97665 2.7142-1.465 4.5313-1.465 1.3401 2e-5 2.5155 0.27258 3.5263 0.81768 1.0107 0.53379 1.8454 1.3117 2.5042 2.3338 0.65868 1.0108 1.1754 2.2486 1.5502 3.7136 0.37475 1.4537 0.56214 3.4184 0.56216 5.8941-2e-5 2.93-0.30097 5.2979-0.90286 7.1036-0.60193 1.7944-1.5048 3.1856-2.7086 4.1736-1.1925 0.97668-2.7029 1.465-4.5313 1.465-2.4076 0-4.2985-0.86311-5.6727-2.5893-1.6467-2.0783-2.4701-5.4626-2.4701-10.153m3.1515 0c-1e-5 4.0998 0.47698 6.8311 1.431 8.1939 0.96531 1.3515 2.1521 2.0272 3.5603 2.0272 1.4082 0 2.5893-0.6814 3.5433-2.0442 0.96531-1.3628 1.448-4.0884 1.448-8.1768-1e-5 -4.1111-0.48267-6.8424-1.448-8.1939-0.95398-1.3514-2.1464-2.0272-3.5774-2.0272-1.4082 3e-5 -2.5326 0.59625-3.373 1.7887-1.0562 1.5218-1.5843 4.3326-1.5843 8.4324" />
          <path transform="scale(.93703 1.0672)"
            d="m110.94 264.44h-3.0663v-19.539c-0.73819 0.70413-1.7092 1.4082-2.913 2.1124-1.1925 0.70413-2.2657 1.2322-3.2196 1.5843v-2.9641c1.7149-0.80631 3.214-1.783 4.4973-2.93 1.2833-1.147 2.1918-2.26 2.7256-3.3389h1.9761v25.076m23.781-18.858-3.0493 0.23849c-0.27257-1.2038-0.6587-2.0783-1.1584-2.6234-0.82905-0.87445-1.8512-1.3117-3.0663-1.3117-0.97669 2e-5 -1.8341 0.27258-2.5723 0.81768-0.96533 0.70414-1.7262 1.7319-2.2827 3.0834-0.55649 1.3515-0.84609 3.2764-0.86879 5.7749 0.73818-1.1243 1.641-1.959 2.7086-2.5042 1.0675-0.54511 2.1862-0.81767 3.3559-0.81768 2.0442 1e-5 3.7818 0.75523 5.2127 2.2657 1.4423 1.4991 2.1634 3.4411 2.1635 5.826-2e-5 1.5672-0.34072 3.0266-1.0221 4.378-0.67006 1.3401-1.5956 2.3679-2.7767 3.0834-1.1811 0.71547-2.5212 1.0732-4.0203 1.0732-2.5553 0-4.6392-0.93693-6.2519-2.8108-1.6127-1.8852-2.419-4.9856-2.419-9.3012 0-4.8266 0.8915-8.3358 2.6745-10.528 1.5559-1.9079 3.6512-2.8619 6.286-2.8619 1.9647 3e-5 3.5717 0.55083 4.8209 1.6524 1.2606 1.1016 2.0158 2.6234 2.2657 4.5654m-12.521 10.766c-1e-5 1.0562 0.22145 2.0669 0.66437 3.0322 0.45426 0.96533 1.0846 1.7035 1.8909 2.2146 0.80632 0.4997 1.6524 0.74955 2.5382 0.74955 1.2947 0 2.4076-0.52241 3.3389-1.5672 0.93124-1.0448 1.3969-2.4644 1.3969-4.2588-2e-5 -1.7262-0.45996-3.0833-1.3798-4.0714-0.91991-0.99938-2.0783-1.4991-3.4752-1.4991-1.3855 1e-5 -2.561 0.49971-3.5263 1.4991-0.96533 0.98804-1.448 2.2884-1.448 3.901m16.03-4.2247c0-2.9527 0.30095-5.3263 0.90286-7.1207 0.61326-1.8057 1.5161-3.1969 2.7086-4.1736 1.2038-0.97665 2.7142-1.465 4.5313-1.465 1.3401 3e-5 2.5155 0.27259 3.5263 0.81769 1.0107 0.53379 1.8455 1.3117 2.5042 2.3338 0.65868 1.0108 1.1754 2.2487 1.5502 3.7137 0.37476 1.4537 0.56215 3.4184 0.56216 5.8941-1e-5 2.93-0.30097 5.2979-0.90286 7.1036-0.60192 1.7944-1.5048 3.1856-2.7086 4.1736-1.1925 0.97668-2.7029 1.465-4.5313 1.465-2.4076 0-4.2985-0.86311-5.6727-2.5893-1.6467-2.0783-2.4701-5.4626-2.4701-10.153m3.1515 0c0 4.0998 0.47698 6.8311 1.431 8.1939 0.96532 1.3514 2.1521 2.0272 3.5603 2.0272 1.4082 0 2.5893-0.68141 3.5433-2.0442 0.96531-1.3628 1.448-4.0884 1.448-8.1768-1e-5 -4.1111-0.48267-6.8424-1.448-8.1939-0.95398-1.3514-2.1464-2.0272-3.5774-2.0272-1.4082 2e-5 -2.5326 0.59625-3.373 1.7887-1.0562 1.5218-1.5843 4.3326-1.5843 8.4324" />
          <path transform="scale(.93703 1.0672)"
            d="m177.26 278.83h-3.0663v-19.539c-0.7382 0.70414-1.7092 1.4083-2.913 2.1124-1.1925 0.70413-2.2657 1.2322-3.2196 1.5843v-2.9641c1.7149-0.8063 3.2139-1.783 4.4973-2.93 1.2833-1.147 2.1918-2.26 2.7256-3.3389h1.9761v25.076m17.699 0v-5.9793h-10.834v-2.8108l11.396-16.183h2.5042v16.183h3.373v2.8108h-3.373v5.9793h-3.0663m0-8.7901v-11.26l-7.8191 11.26h7.8191m9.5908-3.5263c0-2.9527 0.30095-5.3263 0.90286-7.1207 0.61326-1.8057 1.5161-3.1969 2.7086-4.1736 1.2038-0.97666 2.7142-1.465 4.5313-1.465 1.3401 2e-5 2.5155 0.27258 3.5263 0.81768 1.0107 0.53379 1.8454 1.3117 2.5042 2.3338 0.65867 1.0108 1.1754 2.2486 1.5502 3.7136 0.37476 1.4537 0.56214 3.4184 0.56216 5.8941-2e-5 2.93-0.30097 5.2979-0.90286 7.1036-0.60192 1.7944-1.5048 3.1856-2.7086 4.1736-1.1925 0.97668-2.7029 1.465-4.5313 1.465-2.4076 0-4.2985-0.86312-5.6727-2.5893-1.6467-2.0783-2.4701-5.4626-2.4701-10.153m3.1515 0c0 4.0998 0.47698 6.8311 1.431 8.1939 0.96531 1.3514 2.1521 2.0272 3.5603 2.0272 1.4082 0 2.5893-0.6814 3.5433-2.0442 0.96531-1.3628 1.448-4.0884 1.448-8.1768-2e-5 -4.1111-0.48268-6.8424-1.448-8.1939-0.95397-1.3514-2.1464-2.0272-3.5774-2.0272-1.4082 2e-5 -2.5326 0.59625-3.373 1.7887-1.0562 1.5218-1.5843 4.3326-1.5843 8.4324" />
          <path transform="scale(.93703 1.0672)"
            d="m243.58 263.1h-3.0663v-19.539c-0.7382 0.70413-1.7092 1.4082-2.913 2.1124-1.1925 0.70413-2.2657 1.2322-3.2196 1.5843v-2.9641c1.7149-0.8063 3.214-1.783 4.4973-2.93 1.2833-1.147 2.1918-2.26 2.7256-3.3389h1.9761v25.076m23.985-2.9471v2.9471h-16.507c-0.02272-0.73819 0.09653-1.448 0.35774-2.1294 0.42019-1.1243 1.0902-2.2316 2.0101-3.3218 0.93124-1.0902 2.2713-2.3508 4.0203-3.7818 2.7142-2.2259 4.5484-3.9862 5.5023-5.2809 0.95395-1.306 1.4309-2.5382 1.4309-3.6966-1e-5 -1.2152-0.43724-2.2372-1.3117-3.0663-0.86312-0.84038-1.9931-1.2606-3.39-1.2606-1.4764 2e-5 -2.6575 0.44293-3.5433 1.3287-0.88583 0.88584-1.3344 2.1124-1.3458 3.6796l-3.1515-0.32367c0.21578-2.3508 1.0278-4.1395 2.436-5.366 1.4082-1.2379 3.2991-1.8568 5.6727-1.8568 2.3963 2e-5 4.2928 0.66439 5.6897 1.9931 1.3969 1.3288 2.0953 2.9755 2.0953 4.9402-2e-5 0.99941-0.20444 1.9818-0.61327 2.9471-0.40886 0.96534-1.0903 1.9818-2.0442 3.0493-0.94262 1.0675-2.5155 2.5326-4.7187 4.395-1.8398 1.5445-3.0209 2.595-3.5433 3.1515-0.52242 0.54513-0.95397 1.0959-1.2947 1.6524h12.248m3.3048-9.3693c0-2.9527 0.30096-5.3263 0.90286-7.1207 0.61326-1.8057 1.5161-3.1969 2.7086-4.1736 1.2038-0.97666 2.7142-1.465 4.5313-1.465 1.3401 2e-5 2.5155 0.27259 3.5263 0.81768 1.0107 0.53379 1.8455 1.3117 2.5042 2.3338 0.65868 1.0108 1.1754 2.2486 1.5502 3.7136 0.37475 1.4537 0.56214 3.4184 0.56215 5.8942-1e-5 2.93-0.30097 5.2979-0.90286 7.1036-0.60192 1.7944-1.5048 3.1856-2.7086 4.1736-1.1925 0.97668-2.7029 1.465-4.5313 1.465-2.4076 0-4.2985-0.86311-5.6727-2.5893-1.6467-2.0783-2.4701-5.4626-2.4701-10.153m3.1515 0c-1e-5 4.0998 0.47697 6.8311 1.4309 8.1939 0.96532 1.3514 2.1521 2.0272 3.5603 2.0272 1.4082 1e-5 2.5893-0.6814 3.5433-2.0442 0.96531-1.3628 1.448-4.0884 1.448-8.1768-1e-5 -4.1111-0.48267-6.8424-1.448-8.1939-0.95398-1.3514-2.1464-2.0272-3.5774-2.0272-1.4082 2e-5 -2.5326 0.59625-3.373 1.7887-1.0562 1.5218-1.5843 4.3326-1.5843 8.4324" />
          <path transform="scale(.93703 1.0672)"
            d="m276.74 218.6h-3.0663v-19.539c-0.7382 0.70414-1.7092 1.4082-2.913 2.1124-1.1925 0.70414-2.2657 1.2322-3.2196 1.5843v-2.9641c1.7149-0.80631 3.2139-1.783 4.4973-2.93 1.2833-1.147 2.1918-2.26 2.7256-3.3389h1.9761v25.076m7.8702-12.316c0-2.9527 0.30095-5.3263 0.90286-7.1207 0.61326-1.8057 1.5161-3.1969 2.7086-4.1736 1.2038-0.97665 2.7142-1.465 4.5313-1.465 1.3401 3e-5 2.5155 0.27259 3.5263 0.81769 1.0107 0.53379 1.8455 1.3117 2.5042 2.3338 0.65867 1.0108 1.1754 2.2486 1.5502 3.7136 0.37476 1.4537 0.56214 3.4184 0.56216 5.8941-2e-5 2.93-0.30097 5.2979-0.90286 7.1036-0.60192 1.7944-1.5048 3.1856-2.7086 4.1736-1.1925 0.97668-2.7029 1.465-4.5313 1.465-2.4076 0-4.2985-0.86311-5.6727-2.5893-1.6467-2.0783-2.4701-5.4626-2.4701-10.153m3.1515 0c0 4.0998 0.47698 6.8311 1.431 8.1939 0.96532 1.3514 2.1521 2.0272 3.5603 2.0272 1.4082 0 2.5893-0.6814 3.5433-2.0442 0.9653-1.3628 1.448-4.0884 1.448-8.1768-1e-5 -4.1111-0.48268-6.8424-1.448-8.1939-0.95398-1.3514-2.1464-2.0272-3.5774-2.0272-1.4082 3e-5 -2.5326 0.59625-3.373 1.7887-1.0562 1.5218-1.5843 4.3326-1.5843 8.4324m16.269 0c0-2.9527 0.30095-5.3263 0.90286-7.1207 0.61326-1.8057 1.5161-3.1969 2.7086-4.1736 1.2038-0.97665 2.7142-1.465 4.5313-1.465 1.3401 3e-5 2.5155 0.27259 3.5263 0.81769 1.0107 0.53379 1.8454 1.3117 2.5042 2.3338 0.65867 1.0108 1.1754 2.2486 1.5502 3.7136 0.37476 1.4537 0.56214 3.4184 0.56216 5.8941-2e-5 2.93-0.30097 5.2979-0.90286 7.1036-0.60192 1.7944-1.5048 3.1856-2.7086 4.1736-1.1925 0.97668-2.7029 1.465-4.5313 1.465-2.4076 0-4.2985-0.86311-5.6727-2.5893-1.6467-2.0783-2.4701-5.4626-2.4701-10.153m3.1515 0c0 4.0998 0.47698 6.8311 1.431 8.1939 0.96532 1.3514 2.1521 2.0272 3.5603 2.0272 1.4082 0 2.5893-0.6814 3.5433-2.0442 0.96531-1.3628 1.448-4.0884 1.448-8.1768-2e-5 -4.1111-0.48268-6.8424-1.448-8.1939-0.95397-1.3514-2.1464-2.0272-3.5774-2.0272-1.4082 3e-5 -2.5326 0.59625-3.3729 1.7887-1.0562 1.5218-1.5843 4.3326-1.5843 8.4324" />
          <path transform="scale(.93703 1.0672)"
            d="m287.82 147.49c-1.272-0.46561-2.2146-1.13-2.8278-1.9931-0.61327-0.86309-0.9199-1.8966-0.9199-3.1004 0-1.8171 0.65301-3.3445 1.959-4.5824 1.306-1.2379 3.0436-1.8568 5.2127-1.8568 2.1805 3e-5 3.9351 0.636 5.2638 1.9079 1.3287 1.2606 1.9931 2.7995 1.9931 4.6165-2e-5 1.1584-0.30665 2.1692-0.9199 3.0322-0.60192 0.85177-1.5218 1.5105-2.7597 1.9761 1.5331 0.49971 2.6972 1.306 3.4922 2.419 0.80631 1.113 1.2095 2.4417 1.2095 3.9862-1e-5 2.1351-0.75524 3.9294-2.2657 5.3831-1.5105 1.4537-3.4979 2.1805-5.9623 2.1805-2.4644 0-4.4518-0.72683-5.9623-2.1805-1.5104-1.465-2.2657-3.2878-2.2657-5.4683 0-1.624 0.40884-2.9811 1.2265-4.0714 0.82904-1.1016 2.0045-1.8511 3.5263-2.2486m-0.61326-5.1957c-1e-5 1.1811 0.38044 2.1464 1.1414 2.896 0.76089 0.74956 1.7489 1.1243 2.9641 1.1243 1.1811 1e-5 2.1464-0.36908 2.896-1.1073 0.76089-0.74953 1.1413-1.6638 1.1414-2.7426-2e-5 -1.1243-0.39183-2.0669-1.1754-2.8278-0.77227-0.77223-1.7376-1.1584-2.896-1.1584-1.1698 2e-5 -2.1408 0.37479-2.913 1.1243-0.77227 0.74957-1.1584 1.6468-1.1584 2.6916m-0.98804 11.533c0 0.87447 0.20442 1.7206 0.61327 2.5382 0.42019 0.81769 1.0391 1.4537 1.8568 1.9079 0.81768 0.44291 1.6978 0.66437 2.6404 0.66436 1.465 1e-5 2.6745-0.4713 3.6285-1.4139 0.95395-0.9426 1.4309-2.1407 1.431-3.5944-2e-5 -1.4764-0.49404-2.6972-1.4821-3.6626-0.97669-0.96531-2.2032-1.448-3.6796-1.448-1.4423 1e-5 -2.6404 0.47699-3.5944 1.431-0.94262 0.95397-1.4139 2.1464-1.4139 3.5774m16.371-5.1105c0-2.9527 0.30095-5.3263 0.90286-7.1207 0.61326-1.8057 1.5161-3.1969 2.7086-4.1736 1.2038-0.97665 2.7142-1.465 4.5313-1.465 1.3401 3e-5 2.5155 0.27259 3.5263 0.81769 1.0107 0.53379 1.8455 1.3117 2.5042 2.3338 0.65867 1.0108 1.1754 2.2487 1.5502 3.7136 0.37476 1.4537 0.56214 3.4184 0.56216 5.8942-2e-5 2.93-0.30097 5.2979-0.90286 7.1036-0.60192 1.7944-1.5048 3.1856-2.7086 4.1736-1.1925 0.97668-2.7029 1.465-4.5313 1.465-2.4076 0-4.2985-0.86311-5.6727-2.5893-1.6467-2.0783-2.4701-5.4626-2.4701-10.153m3.1515 0c0 4.0998 0.47698 6.8311 1.431 8.1939 0.96532 1.3514 2.1521 2.0272 3.5603 2.0272 1.4082 1e-5 2.5893-0.6814 3.5433-2.0442 0.9653-1.3628 1.448-4.0884 1.448-8.1768-1e-5 -4.1111-0.48268-6.8424-1.448-8.1939-0.95398-1.3514-2.1464-2.0272-3.5774-2.0272-1.4082 2e-5 -2.5326 0.59625-3.373 1.7887-1.0562 1.5218-1.5843 4.3326-1.5843 8.4324" />
          <path transform="scale(.93703 1.0672)"
            d="m277.29 94.322-3.0493 0.23849c-0.27258-1.2038-0.6587-2.0783-1.1584-2.6234-0.82905-0.87445-1.8512-1.3117-3.0663-1.3117-0.97669 2.3e-5 -1.8341 0.27258-2.5723 0.81768-0.96533 0.70414-1.7262 1.7319-2.2827 3.0834-0.55648 1.3515-0.84608 3.2764-0.86879 5.7749 0.73819-1.1243 1.641-1.959 2.7086-2.5042 1.0675-0.54511 2.1862-0.81767 3.3559-0.81768 2.0442 1.6e-5 3.7818 0.75524 5.2127 2.2657 1.4423 1.4991 2.1634 3.4411 2.1634 5.826-1e-5 1.5672-0.34072 3.0266-1.0221 4.378-0.67007 1.3401-1.5956 2.3679-2.7767 3.0834-1.1811 0.71547-2.5212 1.0732-4.0203 1.0732-2.5553 0-4.6392-0.93693-6.2519-2.8108-1.6127-1.8852-2.419-4.9856-2.419-9.3012 0-4.8266 0.8915-8.3358 2.6745-10.528 1.5559-1.9079 3.6512-2.8619 6.286-2.8619 1.9647 2.5e-5 3.5717 0.55083 4.8209 1.6524 1.2606 1.1016 2.0158 2.6234 2.2657 4.5654m-12.521 10.766c-1e-5 1.0562 0.22145 2.0669 0.66437 3.0322 0.45426 0.96532 1.0846 1.7035 1.8909 2.2146 0.80632 0.4997 1.6524 0.74955 2.5382 0.74954 1.2947 1e-5 2.4076-0.5224 3.3389-1.5672 0.93124-1.0448 1.3969-2.4644 1.3969-4.2588-2e-5 -1.7262-0.45997-3.0833-1.3798-4.0714-0.9199-0.99938-2.0783-1.4991-3.4752-1.4991-1.3855 1.3e-5 -2.561 0.4997-3.5263 1.4991-0.96533 0.98805-1.448 2.2884-1.448 3.901m16.03-4.2247c0-2.9527 0.30095-5.3263 0.90286-7.1207 0.61326-1.8057 1.5161-3.1969 2.7086-4.1736 1.2038-0.97665 2.7142-1.465 4.5313-1.465 1.3401 2.5e-5 2.5155 0.27259 3.5263 0.81768 1.0107 0.53379 1.8454 1.3117 2.5042 2.3338 0.65867 1.0108 1.1754 2.2487 1.5502 3.7136 0.37476 1.4537 0.56214 3.4184 0.56216 5.8941-2e-5 2.93-0.30097 5.2979-0.90286 7.1036-0.60192 1.7944-1.5048 3.1856-2.7086 4.1736-1.1925 0.97668-2.7029 1.465-4.5313 1.465-2.4076 0-4.2985-0.86311-5.6727-2.5893-1.6467-2.0783-2.4701-5.4626-2.4701-10.153m3.1515 0c0 4.0998 0.47698 6.8311 1.431 8.1939 0.96532 1.3514 2.1521 2.0272 3.5603 2.0272 1.4082 1e-5 2.5893-0.6814 3.5433-2.0442 0.9653-1.3628 1.448-4.0884 1.448-8.1768-2e-5 -4.1111-0.48268-6.8424-1.448-8.1939-0.95398-1.3514-2.1464-2.0272-3.5774-2.0272-1.4082 2.3e-5 -2.5326 0.59625-3.373 1.7887-1.0562 1.5218-1.5843 4.3326-1.5843 8.4324" />
          <path transform="scale(.93703 1.0672)"
            d="m237.66 80.384v-5.9793h-10.834v-2.8108l11.396-16.183h2.5042v16.183h3.373v2.8108h-3.373v5.9793h-3.0663m0-8.7901v-11.26l-7.8191 11.26h7.8191m9.5908-3.5263c-1e-5 -2.9527 0.30095-5.3263 0.90286-7.1207 0.61326-1.8057 1.5161-3.1969 2.7086-4.1736 1.2038-0.97665 2.7142-1.465 4.5313-1.465 1.3401 2.5e-5 2.5155 0.27259 3.5263 0.81768 1.0107 0.53379 1.8454 1.3117 2.5042 2.3338 0.65868 1.0108 1.1754 2.2487 1.5502 3.7137 0.37475 1.4537 0.56214 3.4184 0.56216 5.8941-2e-5 2.93-0.30097 5.2979-0.90286 7.1036-0.60193 1.7944-1.5048 3.1856-2.7086 4.1736-1.1925 0.97668-2.7029 1.465-4.5313 1.465-2.4076 0-4.2985-0.86311-5.6727-2.5893-1.6467-2.0783-2.4701-5.4626-2.4701-10.153m3.1515 0c-1e-5 4.0998 0.47698 6.8311 1.431 8.1939 0.96531 1.3515 2.1521 2.0272 3.5603 2.0272 1.4082 2e-6 2.5893-0.6814 3.5433-2.0442 0.96531-1.3628 1.448-4.0884 1.448-8.1768-1e-5 -4.1111-0.48267-6.8424-1.448-8.1939-0.95398-1.3514-2.1464-2.0272-3.5774-2.0272-1.4082 2.2e-5 -2.5326 0.59625-3.373 1.7887-1.0562 1.5218-1.5843 4.3326-1.5843 8.4324" />
          <path transform="scale(.93703 1.0672)"
            d="m137.23 79.82v2.9471h-16.507c-0.02271-0.73819 0.09653-1.448 0.35774-2.1294 0.4202-1.1243 1.0902-2.2316 2.0101-3.3218 0.93125-1.0902 2.2713-2.3508 4.0203-3.7818 2.7142-2.2259 4.5484-3.9862 5.5023-5.2809 0.95395-1.306 1.4309-2.5382 1.431-3.6966-2e-5 -1.2152-0.43725-2.2373-1.3117-3.0663-0.86313-0.84038-1.9931-1.2606-3.39-1.2606-1.4764 2.3e-5 -2.6575 0.44294-3.5433 1.3287-0.88583 0.88584-1.3344 2.1124-1.3458 3.6796l-3.1515-0.32367c0.21577-2.3508 1.0278-4.1395 2.436-5.3661 1.4082-1.2379 3.2991-1.8568 5.6727-1.8568 2.3963 2.5e-5 4.2928 0.66439 5.6897 1.9931 1.3969 1.3288 2.0953 2.9755 2.0953 4.9402-2e-5 0.99941-0.20444 1.9818-0.61326 2.9471-0.40886 0.96534-1.0903 1.9818-2.0442 3.0493-0.94263 1.0675-2.5155 2.5326-4.7187 4.3951-1.8398 1.5445-3.0209 2.595-3.5433 3.1515-0.52241 0.54513-0.95397 1.0959-1.2947 1.6524h12.248m13.134 2.9471v-5.9793h-10.834v-2.8108l11.396-16.183h2.5042v16.183h3.3729v2.8108h-3.3729v5.9793h-3.0663m0-8.7901v-11.26l-7.8191 11.26h7.8191m9.5908-3.5263c0-2.9527 0.30095-5.3263 0.90286-7.1207 0.61326-1.8057 1.5161-3.1969 2.7086-4.1736 1.2038-0.97665 2.7142-1.465 4.5313-1.465 1.3401 2.5e-5 2.5155 0.27259 3.5263 0.81768 1.0107 0.53379 1.8454 1.3117 2.5042 2.3338 0.65867 1.0108 1.1754 2.2487 1.5502 3.7136 0.37475 1.4537 0.56214 3.4184 0.56216 5.8941-2e-5 2.93-0.30097 5.2979-0.90286 7.1036-0.60193 1.7944-1.5048 3.1856-2.7086 4.1736-1.1925 0.97668-2.7029 1.465-4.5313 1.465-2.4076 0-4.2985-0.86311-5.6727-2.5893-1.6467-2.0783-2.4701-5.4626-2.4701-10.153m3.1515 0c-1e-5 4.0998 0.47698 6.8311 1.431 8.1939 0.96531 1.3515 2.1521 2.0272 3.5603 2.0272 1.4082 2e-6 2.5893-0.6814 3.5433-2.0442 0.96531-1.3628 1.448-4.0884 1.448-8.1768-1e-5 -4.1111-0.48267-6.8424-1.448-8.1939-0.95398-1.3514-2.1464-2.0272-3.5774-2.0272-1.4082 2.3e-5 -2.5326 0.59625-3.373 1.7887-1.0562 1.5218-1.5843 4.3326-1.5843 8.4324" />
        </g>
      </g>
      <g id="needle">
        <path d="m20.75 4.72-11.188 13.125 21.107 17.219c6.5283 5.752 58.395 40.825 66.531 40.656 0.7379-7.34-46.133-46.933-54.438-53.031l-22.013-17.969z" fill="white" fill-rule="evenodd" />
        <path
          d="m97.2 75.72c0.7379-7.34-46.133-46.933-54.438-53.031l-29.888-24.406c-0.54383-6.61-6.0629-11.812-12.812-11.812-0.49879 0-0.98467 0.03848-1.4688 0.09375l-19.781-16.188c-0.71875-6.4303-6.1601-11.438-12.781-11.438-7.1094 0-12.875 5.7656-12.875 12.875 0 7.1094 5.7655 12.906 12.875 12.906 0.92349 0 1.8189-0.12749 2.6875-0.3125l18.469 15.125c0.10154 7.0221 5.8289 12.688 12.875 12.688 0.81286 0 1.6038-0.07452 2.375-0.21875l28.232 23.062c6.5283 5.752 58.395 40.825 66.531 40.656z"
          fill="none" stroke="#fff" stroke-width="2" />
      </g>
      <path id="center" transform="matrix(.13725 0 0 .13725 160.13 159.96)" d="m158.09 141.29a12.879 12.879 0 1 1-25.759 0 12.879 12.879 0 1 1 25.759 0z" fill="#fff" fill-rule="evenodd" />
    
</svg>